<?xml version="1.0" encoding="utf-8"?>
<!-- Generator: Adobe Illustrator 25.1.0, SVG Export Plug-In . SVG Version: 6.00 Build 0)  -->
<svg version="1.1" id="Capa_1" xmlns="http://www.w3.org/2000/svg" xmlns:xlink="http://www.w3.org/1999/xlink" x="0px" y="0px"
	 viewBox="0 0 155.3 34.3" style="enable-background:new 0 0 155.3 34.3;" xml:space="preserve">
<style type="text/css">
	.st0{fill:none;}
	.st1{fill:#D9262E;}
</style>
<rect class="st0" width="150" height="32.8"/>
<g id="Logo_renta_color">
	<g id="Grupo_11">
		<path id="Trazado_2" class="st1" d="M37,33.5v-7h3.8l4.7,3c1.1,0.7,2.1,1.5,3.1,2.4l0,0c-0.2-1-0.3-1.9-0.3-2.9v-2.5h3.1v7H48
			l-4.8-3.1C42.1,29.7,41,28.9,40,28h-0.1c0.1,1,0.2,2,0.2,3v2.5L37,33.5z"/>
		<path id="Trazado_3" class="st1" d="M59,31.5l-1.6,2H54l5.9-7h4.3l5.9,7h-3.6l-1.7-2H59z M64.2,30.6l-1.4-1.7
			c-0.4-0.4-0.6-0.9-0.9-1.3l0,0c-0.3,0.4-0.6,0.9-0.9,1.3l-1.4,1.7H64.2z"/>
		<path id="Trazado_4" class="st1" d="M85.1,33.3c-1.6,0.2-3.2,0.3-4.7,0.3c-5.8,0-9.4-1.4-9.4-3.5c0-2.3,4.2-3.7,9.8-3.7
			c1.5,0,3,0.1,4.4,0.3l-0.7,1c-1.2-0.2-2.4-0.3-3.6-0.3c-3.7,0-6.4,0.9-6.4,2.6s2.3,2.5,6.4,2.5c1.2,0,2.4-0.1,3.6-0.2L85.1,33.3z"
			/>
		<rect id="Rectángulo_812" x="87.9" y="26.5" class="st1" width="3.3" height="7"/>
		<path id="Trazado_5" class="st1" d="M111.3,29.9c0,2.4-3.7,3.7-8.7,3.7c-5,0-8.4-1.5-8.4-3.6s3.5-3.7,8.7-3.7
			S111.3,27.9,111.3,29.9 M97.6,30c0,1.4,1.9,2.6,5.1,2.6s5-1.2,5-2.6c0-1.5-1.7-2.6-5-2.6C99.4,27.4,97.6,28.6,97.6,30"/>
		<path id="Trazado_6" class="st1" d="M114.1,33.5v-7h3.8l4.7,3c1.1,0.7,2.1,1.5,3.1,2.4l0,0c-0.2-1-0.3-1.9-0.3-2.9v-2.5h3.1v7
			h-3.5l-4.8-3.1c-1.1-0.7-2.2-1.5-3.3-2.4H117c0.1,1,0.2,2,0.2,3v2.5L114.1,33.5z"/>
		<path id="Trazado_7" class="st1" d="M136.1,31.5l-1.6,2h-3.4l5.9-7h4.3l5.9,7h-3.6l-1.7-2H136.1z M141.3,30.6l-1.4-1.7
			c-0.3-0.4-0.6-0.9-0.9-1.3h-0.1c-0.3,0.4-0.6,0.9-0.9,1.3l-1.4,1.7H141.3z"/>
		<path id="Trazado_8" class="st1" d="M149.7,26.5h3.3v6h2.3v1h-5.6L149.7,26.5z"/>
		<path id="Trazado_9" class="st1" d="M59.8,21.7c0,0.1,0,0.2-0.1,0.2c-0.1,0.1-0.2,0.2-0.3,0.2c-0.2,0.1-0.5,0.1-0.7,0.1
			c-0.3,0-0.7,0-1.3,0c-0.5,0-0.8,0-1.1,0c-0.2,0-0.5,0-0.7-0.1c-0.2,0-0.3-0.1-0.4-0.2c-0.1-0.1-0.2-0.2-0.3-0.3l-3.1-5.1
			c-0.4-0.5-0.7-1.1-1.1-1.6c-0.4-0.5-0.9-0.9-1.4-1.2c-0.6-0.4-1.3-0.6-1.9-0.8c-0.9-0.2-1.8-0.3-2.7-0.3h-3.1v9.1
			c0,0.1,0,0.2-0.1,0.2c-0.1,0.1-0.2,0.1-0.4,0.2c-0.2,0-0.5,0.1-0.7,0.1c-0.4,0-0.7,0-1.1,0c-0.3,0-0.7,0-1,0
			c-0.2,0-0.5-0.1-0.7-0.1c-0.1,0-0.3-0.1-0.4-0.2c-0.1-0.1-0.1-0.1-0.1-0.2V1.8c0-0.4,0.2-0.7,0.5-0.9c0.4-0.2,0.7-0.3,1.1-0.3H46
			c0.9,0,1.6,0,2.2,0s1,0.1,1.5,0.1c1.2,0.1,2.4,0.3,3.5,0.7c0.9,0.3,1.8,0.7,2.6,1.2c0.6,0.4,1.2,1,1.5,1.7
			c0.4,0.6,0.5,1.4,0.5,2.1c0,0.7-0.1,1.3-0.5,1.9C57,8.9,56.5,9.4,56,9.8c-0.6,0.5-1.3,0.9-2.1,1.1c-0.9,0.3-1.8,0.6-2.7,0.8
			c0.5,0.1,1,0.3,1.5,0.6c0.5,0.2,0.9,0.5,1.3,0.9c0.4,0.3,0.8,0.7,1.1,1.1c0.4,0.5,0.7,1,1,1.5l3.1,4.7c0.2,0.3,0.3,0.5,0.5,0.8
			C59.7,21.4,59.8,21.6,59.8,21.7 M53,6.6c0-0.8-0.3-1.5-0.9-2.1c-0.9-0.7-1.9-1.1-3-1.2c-0.5-0.1-1-0.1-1.5-0.2c-0.6,0-1.3,0-2.2,0
			h-3.8v7.3H46c1,0,2.1-0.1,3.1-0.3c0.8-0.1,1.5-0.4,2.2-0.8c0.5-0.3,1-0.7,1.3-1.2C52.8,7.8,53,7.3,53,6.7"/>
		<path id="Trazado_10" class="st1" d="M85.2,13.6c0,0.4-0.2,0.7-0.5,0.9c-0.4,0.2-0.8,0.3-1.2,0.3H67.9c0,0.8,0.1,1.5,0.4,2.2
			c0.3,0.7,0.7,1.2,1.3,1.7c0.7,0.5,1.5,0.9,2.4,1.1c1.2,0.3,2.4,0.4,3.6,0.4c1,0,2-0.1,3-0.2c0.9-0.1,1.6-0.2,2.3-0.4l1.6-0.4
			c0.3-0.1,0.6-0.2,0.9-0.2c0.1,0,0.2,0,0.3,0.1c0.1,0,0.2,0.1,0.2,0.2c0.1,0.1,0.1,0.2,0.1,0.3c0,0.2,0,0.3,0,0.5
			c0,0.1,0,0.3,0,0.4c0,0.1,0,0.2-0.1,0.3c0,0.1-0.1,0.2-0.1,0.2c-0.1,0.1-0.2,0.1-0.2,0.2c-0.3,0.1-0.6,0.2-0.9,0.3
			c-0.6,0.2-1.2,0.3-1.9,0.4c-0.6,0.1-1.6,0.2-2.6,0.4c-1,0.1-2.1,0.2-3.2,0.2c-1.7,0-3.5-0.2-5.1-0.5c-1.3-0.3-2.6-0.8-3.7-1.5
			c-1-0.6-1.7-1.5-2.3-2.5c-0.5-1.1-0.8-2.3-0.8-3.6c0-1.2,0.3-2.4,0.8-3.5c0.5-1,1.3-1.9,2.3-2.6c1.1-0.8,2.3-1.3,3.6-1.6
			C71.5,6.2,73.1,6,74.7,6c1.6,0,3.2,0.2,4.8,0.6c1.2,0.3,2.3,0.8,3.2,1.5c0.8,0.6,1.5,1.4,1.9,2.3c0.4,0.9,0.6,1.8,0.6,2.7V13.6z
			 M80.8,12.8c0.1-1.3-0.5-2.6-1.5-3.4c-1.4-0.9-3.1-1.3-4.8-1.2c-1,0-1.9,0.1-2.8,0.4c-0.7,0.2-1.5,0.6-2.1,1
			c-0.5,0.4-1,0.9-1.3,1.5c-0.3,0.5-0.5,1.1-0.5,1.8L80.8,12.8z"/>
		<path id="Trazado_11" class="st1" d="M112.3,21.7c0,0.1,0,0.2-0.1,0.2c-0.1,0.1-0.2,0.1-0.3,0.2c-0.2,0.1-0.4,0.1-0.7,0.1
			c-0.3,0-0.6,0-1,0c-0.4,0-0.8,0-1,0c-0.2,0-0.4,0-0.7-0.1c-0.1,0-0.2-0.1-0.3-0.2c-0.1-0.1-0.1-0.1-0.1-0.2V13
			c0-0.7-0.1-1.4-0.3-2.1c-0.2-0.5-0.5-1-0.9-1.3c-0.5-0.4-1-0.7-1.6-0.8c-0.7-0.2-1.5-0.3-2.2-0.3c-1.1,0-2.3,0.2-3.3,0.7
			c-1.2,0.6-2.4,1.3-3.4,2.1v10.4c0,0.1,0,0.2-0.1,0.2C96,21.9,95.9,22,95.7,22c-0.2,0.1-0.4,0.1-0.7,0.1c-0.3,0-0.6,0-1,0
			c-0.4,0-0.8,0-1,0c-0.2,0-0.5-0.1-0.7-0.1c-0.1,0-0.2-0.1-0.3-0.2c-0.1-0.1-0.1-0.1-0.1-0.2V6.8c0-0.1,0-0.2,0.1-0.2
			c0.1-0.1,0.2-0.1,0.3-0.2c0.2-0.1,0.4-0.1,0.6-0.1h1h1c0.2,0,0.4,0,0.6,0.1c0.1,0,0.2,0.1,0.3,0.2c0.1,0.1,0.1,0.1,0.1,0.2v2
			c1.2-0.9,2.6-1.6,4-2.1c1.3-0.4,2.7-0.7,4-0.7c1.4,0,2.7,0.1,4,0.5c1,0.3,1.8,0.7,2.6,1.4c0.6,0.5,1.1,1.2,1.4,2
			c0.3,0.9,0.5,1.8,0.4,2.7L112.3,21.7z"/>
		<path id="Trazado_12" class="st1" d="M132.1,20.6c0,0.3,0,0.5-0.1,0.8c-0.1,0.2-0.2,0.3-0.3,0.4c-0.2,0.1-0.4,0.2-0.6,0.2
			c-0.3,0.1-0.6,0.2-1,0.2c-0.4,0.1-0.7,0.1-1.1,0.1s-0.8,0-1.2,0c-1,0-2.1-0.1-3.1-0.3c-0.8-0.2-1.5-0.5-2.2-0.9
			c-0.6-0.4-1-0.9-1.2-1.6c-0.3-0.7-0.4-1.5-0.4-2.2V8.6h-3.3c-0.2,0-0.5-0.1-0.6-0.3c-0.2-0.2-0.3-0.6-0.2-0.9c0-0.2,0-0.4,0.1-0.5
			c0-0.1,0.1-0.2,0.2-0.4c0.1-0.1,0.2-0.2,0.3-0.2c0.1,0,0.3,0,0.4,0h3.2V2.8c0-0.1,0-0.2,0.1-0.2c0.1-0.1,0.2-0.1,0.3-0.2
			c0.2-0.1,0.4-0.1,0.7-0.1c0.3,0,0.6,0,1,0s0.8,0,1,0c0.2,0,0.4,0,0.7,0.1c0.1,0,0.2,0.1,0.3,0.2c0.1,0.1,0.1,0.1,0.1,0.2v3.5h6.1
			c0.1,0,0.2,0,0.4,0.1c0.1,0,0.2,0.1,0.3,0.2c0.1,0.1,0.1,0.2,0.2,0.4c0,0.2,0.1,0.4,0.1,0.5c0,0.3-0.1,0.6-0.2,0.9
			c-0.2,0.2-0.4,0.3-0.6,0.3h-6.1v8.3c-0.1,0.8,0.2,1.7,0.7,2.3c0.7,0.6,1.7,0.9,2.6,0.8c0.3,0,0.7,0,1-0.1c0.3,0,0.6-0.1,0.9-0.2
			c0.2-0.1,0.5-0.1,0.6-0.2c0.2,0,0.3-0.1,0.5-0.1c0.1,0,0.2,0,0.2,0c0.1,0,0.1,0.1,0.2,0.2c0.1,0.1,0.1,0.2,0.1,0.3
			c0,0.2,0.1,0.3,0.1,0.5"/>
		<path id="Trazado_13" class="st1" d="M155.1,21.7c0,0.1-0.1,0.3-0.2,0.3c-0.2,0.1-0.4,0.1-0.6,0.1c-0.3,0-0.7,0.1-1,0.1
			c-0.4,0-0.7,0-1.1-0.1c-0.2,0-0.4-0.1-0.6-0.1c-0.1-0.1-0.2-0.2-0.2-0.3v-1.5c-1.1,0.7-2.3,1.2-3.5,1.6c-1.3,0.4-2.7,0.6-4.1,0.6
			c-1.1,0-2.3-0.1-3.4-0.3c-0.9-0.2-1.8-0.5-2.6-0.9c-0.7-0.3-1.2-0.8-1.7-1.4c-0.4-0.6-0.6-1.2-0.6-1.9c0-0.8,0.3-1.6,0.8-2.2
			c0.7-0.7,1.5-1.2,2.4-1.5c1.2-0.5,2.5-0.8,3.7-0.9c1.7-0.2,3.3-0.3,5-0.3h3.3v-1.1c0-0.5-0.1-1-0.3-1.5c-0.2-0.4-0.5-0.8-0.9-1.1
			c-0.5-0.3-1.1-0.6-1.7-0.7c-0.8-0.1-1.7-0.2-2.5-0.2c-1,0-1.9,0.1-2.9,0.2c-0.8,0.1-1.5,0.3-2.2,0.5s-1.2,0.4-1.6,0.5
			c-0.3,0.1-0.6,0.2-1,0.2c-0.1,0-0.3,0-0.4-0.1c-0.1,0-0.2-0.1-0.3-0.2c-0.1-0.1-0.1-0.2-0.2-0.3c0-0.2,0-0.3,0-0.5
			c0-0.2,0-0.4,0.1-0.6c0.1-0.2,0.3-0.4,0.4-0.5c0.4-0.2,0.8-0.4,1.2-0.5c0.7-0.2,1.3-0.4,2-0.5c0.7-0.1,1.6-0.3,2.5-0.4
			c0.9-0.1,1.8-0.2,2.7-0.2c1.5,0,2.9,0.1,4.4,0.4c1,0.2,2,0.5,2.9,1c0.7,0.4,1.2,1,1.6,1.7c0.3,0.8,0.5,1.6,0.5,2.4L155.1,21.7z
			 M150.8,14.9h-3.7c-1,0-2.1,0.1-3.1,0.2c-0.7,0.1-1.5,0.3-2.2,0.6c-0.5,0.2-0.9,0.5-1.3,0.9c-0.3,0.3-0.4,0.8-0.4,1.2
			c0,0.8,0.5,1.5,1.2,1.9c1,0.5,2.2,0.7,3.3,0.7c1.1,0,2.2-0.2,3.2-0.5c1.1-0.4,2.2-1,3.1-1.7L150.8,14.9z"/>
		<path id="Trazado_14" class="st1" d="M26.8,0.7H3.8C1.7,0.7,0,2.4,0,4.4v25.3c0,2.1,1.7,3.8,3.8,3.8h23.1c2.1,0,3.8-1.7,3.8-3.8
			V4.4C30.6,2.4,28.9,0.7,26.8,0.7C26.9,0.7,26.8,0.7,26.8,0.7L26.8,0.7 M4.6,9.4c-0.1-1,0.7-1.9,1.7-2h9c1,0.1,1.8,0.9,1.7,2
			c0.1,1-0.7,1.9-1.7,2h-9C5.2,11.3,4.5,10.4,4.6,9.4C4.6,9.4,4.6,9.4,4.6,9.4 M9,17.1c-0.1-1,0.7-1.9,1.7-2h9c1,0.1,1.8,0.9,1.7,2
			c0.1,1-0.7,1.9-1.7,2h-9C9.8,19,9,18.1,9,17.1 M24.3,26.7h-9c-1.1-0.2-1.8-1.2-1.7-2.2c0.1-0.9,0.8-1.5,1.7-1.7h9
			C25.4,23,26.2,24,26,25C25.9,25.9,25.2,26.6,24.3,26.7"/>
	</g>
</g>
</svg>
